<?xml version="1.0" encoding="utf-8"?>
<!-- Generator: Adobe Illustrator 14.0.0, SVG Export Plug-In . SVG Version: 6.00 Build 43363)  -->
<!DOCTYPE svg PUBLIC "-//W3C//DTD SVG 1.0//EN" "http://www.w3.org/TR/2001/REC-SVG-20010904/DTD/svg10.dtd">
<svg version="1.0" id="Layer_1" xmlns="http://www.w3.org/2000/svg" xmlns:xlink="http://www.w3.org/1999/xlink" x="0px" y="0px"
	 width="595.28px" height="841.89px" viewBox="0 0 595.28 841.89" enable-background="new 0 0 595.28 841.89" xml:space="preserve">
<g>
	<path d="M297.398,399.106c-12.371,0-22.398,10.027-22.398,22.398c0,12.372,10.027,22.403,22.398,22.403
		s22.402-10.031,22.402-22.403C319.8,409.133,309.769,399.106,297.398,399.106L297.398,399.106z M297.398,437.505
		c-8.835,0-16-7.16-16-16.001c0-8.835,7.165-16,16-16c8.84,0,16,7.165,16,16C313.398,430.345,306.238,437.505,297.398,437.505
		L297.398,437.505z M297.398,437.505"/>
	<path d="M309.398,421.504c0,6.63-5.371,12.001-12,12.001c-6.625,0-12-5.371-12-12.001c0-6.625,5.375-12,12-12
		C304.027,409.504,309.398,414.879,309.398,421.504L309.398,421.504z M309.398,421.504"/>
</g>
<rect x="269.69" y="417.445" stroke="#000000" width="7.166" height="7"/>
<rect x="317.565" y="417.445" stroke="#000000" width="7.166" height="7"/>
<rect x="293.9" y="393.708" stroke="#000000" width="7" height="7.166"/>
<rect x="294.14" y="441.708" stroke="#000000" width="7" height="7.166"/>
</svg>
